# xmcd CD database file
#
# Track frame offsets:
#	150
#	17887
#	39550
#	62025
#	80300
#
# Disc length: 1284 seconds
#
# Revision: 0
# Processed by: cddbd v1.5.1PL0 Copyright (c) Steve Scherf et al.
# Submitted via: CDex 1.51
#
DISCID=36050205
DTITLE=大西ユカリと新世界 - 五曲入り
DYEAR=2003
DGENRE=Pop
TTITLE0=赤い夏
TTITLE1=苦い涙
TTITLE2=恋のスマートボール
TTITLE3=涙の湖'72
TTITLE4=タイガー＆ドラゴン
EXTD=YEAR: 2003
EXTT0=
EXTT1=
EXTT2=
EXTT3=
EXTT4=
PLAYORDER=
